<?xml version="1.0" encoding="UTF-8" standalone="no"?>
<!-- Created with Inkscape (http://www.inkscape.org/) -->

<svg
   xmlns:dc="http://purl.org/dc/elements/1.1/"
   xmlns:cc="http://creativecommons.org/ns#"
   xmlns:rdf="http://www.w3.org/1999/02/22-rdf-syntax-ns#"
   xmlns:svg="http://www.w3.org/2000/svg"
   xmlns="http://www.w3.org/2000/svg"
   xmlns:sodipodi="http://sodipodi.sourceforge.net/DTD/sodipodi-0.dtd"
   xmlns:inkscape="http://www.inkscape.org/namespaces/inkscape"
   id="svg4156"
   version="1.1"
   inkscape:version="0.91 r13725"
   width="328.125"
   height="328.125"
   viewBox="0 0 328.125 328.125"
   sodipodi:docname="icon.svg">
  <metadata
     id="metadata4162">
    <rdf:RDF>
      <cc:Work
         rdf:about="">
        <dc:format>image/svg+xml</dc:format>
        <dc:type
           rdf:resource="http://purl.org/dc/dcmitype/StillImage" />
        <dc:title></dc:title>
      </cc:Work>
    </rdf:RDF>
  </metadata>
  <defs
     id="defs4160" />
  <sodipodi:namedview
     pagecolor="#ffffff"
     bordercolor="#666666"
     borderopacity="1"
     objecttolerance="10"
     gridtolerance="10"
     guidetolerance="10"
     inkscape:pageopacity="0"
     inkscape:pageshadow="2"
     inkscape:window-width="1920"
     inkscape:window-height="996"
     id="namedview4158"
     showgrid="false"
     inkscape:zoom="1.4384762"
     inkscape:cx="-80.431533"
     inkscape:cy="156.03767"
     inkscape:window-x="-8"
     inkscape:window-y="54"
     inkscape:window-maximized="1"
     inkscape:current-layer="layer2" />
  <g
     inkscape:groupmode="layer"
     id="layer1"
     inkscape:label="Layer 1" />
  <g
     inkscape:groupmode="layer"
     id="layer2"
     inkscape:label="Layer 2">
    <path
       style="fill:#8bc9f2;fill-opacity:1"
       d="m 62.328524,277.43496 c -1.925,-0.74131 -4.6475,-1.38208 -6.05,-1.42392 -1.4025,-0.0418 -2.9775,-0.45841 -3.5,-0.9257 -0.5225,-0.46729 -2.975,-1.63047 -5.45,-2.58484 -8.057,-3.10682 -24.50236,-16.7346 -25.63359,-21.24178 -0.32078,-1.27807 -0.97841,-2.32376 -1.4614,-2.32376 -0.483,0 -1.49711,-1.4625 -2.25358,-3.25 -0.75647,-1.7875 -2.33751,-4.10724 -3.51342,-5.15499 -1.17591,-1.04774 -2.13801,-2.79463 -2.13801,-3.88196 0,-1.08734 -0.91129,-3.45147 -2.02508,-5.25363 -2.5603699,-4.14276 -4.3569999,-18.15486 -3.6398699,-28.38773 0.66255,-9.45405 2.76861,-19.57795 4.4149499,-21.22281 0.6875,-0.68688 1.25,-2.08123 1.25,-3.09854 0,-2.30738 2.75105,-7.75034 3.91727,-7.75034 0.47625,0 1.13069,-1.05497 1.45431,-2.34438 0.32363,-1.28942 2.83535,-4.77692 5.58161,-7.75 2.74627,-2.97309 5.00527,-5.78349 5.02001,-6.24533 0.0369,-1.15676 4.26172,-4.58623 5.70007,-4.62702 0.6453,-0.0183 2.4453,-1.10253 4,-2.4094 1.5547,-1.30687 4.62673,-3.23448 6.82673,-4.28356 l 4,-1.90743 -0.24314,-6.27227 c -0.30241,-7.80153 3.71135,-30.52883 5.75194,-32.56942 0.54516,-0.54515 0.9912,-1.7384 0.9912,-2.651642 0,-0.91325 1.125,-3.31824 2.5,-5.34441 1.375,-2.02618 2.5,-4.13319 2.5,-4.68225 0,-0.54906 1.73413,-3.34158 3.85363,-6.20559 10.36949,-14.01201 26.04631,-25.883264 39.146366,-29.643566 2.475,-0.710435 5.4,-1.64572 6.5,-2.078411 11.83541,-4.655525 42.11427,-2.95055 52.086,2.932916 1.94058,1.144968 4.17084,2.08176 4.95614,2.08176 1.84311,0 10.38269,5.18454 17.71875,10.757391 7.12425,5.41194 15.77097,16.01737 18.74612,22.99261 1.2316,2.8875 2.56163,5.25 2.95562,5.25 0.39399,0 1.22892,1.125 1.85542,2.5 1.57931,3.466222 6.25833,3.408792 9.52758,-0.11694 3.90912,-4.21582 22.20334,-8.23409 24.95593,-5.4815 0.60414,0.60414 3.20334,1.09844 5.776,1.09844 2.93787,0 5.14055,0.55788 5.92244,1.5 0.68469,0.825 2.04938,1.5 3.03265,1.5 4.74721,0 18.90463,15.115112 17.52496,18.710462 -0.35367,0.92166 0.22799,2.49687 1.37146,3.71404 1.48733,1.58319 2.15639,4.16133 2.66614,10.27374 0.59981,7.19218 0.42693,8.6467 -1.45734,12.26175 -1.17583,2.25588 -2.13787,5.12274 -2.13787,6.3708 0,1.24807 -0.48518,2.75439 -1.07818,3.34739 -0.593,0.593 -0.9305,2.32617 -0.75,3.85151 0.33238,2.80882 1.88739,3.57148 11.90289,5.83781 3.93355,0.8901 17.01937,10.15333 19.19308,13.58646 1.06074,1.67532 2.25449,3.04604 2.65278,3.04604 0.95115,0 5.73177,7.32927 6.63325,10.16958 0.38766,1.22142 1.99664,4.3202 3.57551,6.88619 1.82526,2.96642 2.88653,6.08183 2.91422,8.55483 0.024,2.13917 0.40969,5.78091 0.8572,8.09275 1.59529,8.2414 -1.93069,27.31864 -6.21429,33.62226 -1.42982,2.10408 -2.87453,4.69158 -3.21046,5.75 -0.33592,1.05841 -1.25545,1.92439 -2.04339,1.92439 -0.78793,0 -1.43261,0.74975 -1.43261,1.66611 0,1.67335 -0.89603,2.85752 -6.56975,8.68237 -4.17604,4.28728 -16.77863,11.65152 -19.93951,11.65152 -1.41373,0 -4.33456,0.9 -6.49074,2 -3.84803,1.96312 -5.81595,1.9986 -106.71016,1.92392 -83.673466,-0.0619 -103.440756,-0.32674 -106.289836,-1.42392 z M 192.00082,236.06625 c 7.15961,-2.81232 14.54537,-9.22655 17.57969,-15.26724 8.84105,-17.60066 7.64197,-42.5477 -2.69581,-56.08668 -9.10417,-11.92337 -24.53211,-16.49955 -39.76439,-11.79478 -12.6652,3.91188 -19.99652,12.53729 -23.95229,28.18024 -4.69566,18.56881 0.99121,40.20431 13.08288,49.77343 9.68103,7.66138 24.1269,9.7606 35.74992,5.19503 z m -22.91128,-15.19372 c -2.27045,-1.19872 -4.52022,-3.50541 -5.72809,-5.87301 -5.6853,-11.14412 -4.67634,-36.27617 1.74104,-43.36729 3.15206,-3.48299 7.49525,-5.04155 13.91803,-4.99449 7.76495,0.0569 11.92297,2.3245 15.308,8.34834 2.35783,4.19588 2.5,5.30191 2.5,19.44888 0,14.14365 -0.14272,15.25469 -2.5,19.4613 -3.68248,6.57146 -7.92322,9.04864 -15.39788,8.9945 -4.07535,-0.0295 -7.34399,-0.69985 -9.8411,-2.01823 z m -46.34281,15.45544 c 1.40667,-0.53979 1.58179,-5.13031 1.58179,-41.46482 0,-46.51535 0.74656,-42.92819 -8.93426,-42.92819 -3.73241,0 -5.59215,0.52641 -7.06574,2 -1.9315,1.9315 -2,3.33333 -2,40.92857 0,44.74985 -0.57231,42.07143 8.98964,42.07143 3.21573,0 6.55859,-0.27314 7.42857,-0.60699 z m -0.34129,-96.31609 c 5.09029,-5.09029 3.6355,-14.04565 -2.71258,-16.69805 -7.1122,-2.97167 -13.36434,1.31013 -13.36434,9.1526 0,9.42582 9.6619,13.96048 16.07692,7.54545 z"
       id="path4755-9"
       inkscape:connector-curvature="0" />
  </g>
</svg>
