<svg width="80" height="80" id="Layer_1" data-name="Layer 1" xmlns="http://www.w3.org/2000/svg" viewBox="0 0 79.9 63.75">
	<defs><style>.cls-1{fill:#9c9c9c;}</style></defs>
	<title>service-connector-gray</title>
	<path class="cls-1" d="M74.73,34.09h-1.5a11.93,11.93,0,0,0-22.14-8.86A23.87,23.87,0,1,0,32,65.8a2,2,0,0,0,.36-4,19.89,19.89,0,1,1,18.1-31.21,2,2,0,0,0,3.61-1,8,8,0,1,1,13.77,5.9A2,2,0,0,0,70,38.7a11.88,11.88,0,1,1,4,23.06H68a2.07,2.07,0,1,0,0,4.14h5.76a15.91,15.91,0,0,0,1-31.81Z" transform="translate(-10.26 -18.09)"/><path class="cls-1" d="M67.67,47.33h0a2.14,2.14,0,0,0-2.14-2.14H58.59V37.55a2.15,2.15,0,0,0-4.3,0h0v7.64h-8.6V37.55a2.15,2.15,0,1,0-4.3,0v7.64H34.47a2.15,2.15,0,0,0,0,4.3h3.28V55.8a12.18,12.18,0,0,0,3.6,8.6l.22.2c.15.15.3.28.46.42l.51.42.09.07a12.1,12.1,0,0,0,4.49,2.14V79a2.84,2.84,0,0,0,5.68,0V67.75H53l.28-.08.53-.16a8.64,8.64,0,0,0,.85-.31h.12a12.25,12.25,0,0,0,7.54-11.33V49.56H65.6A2.15,2.15,0,0,0,67.67,47.33Z" transform="translate(-10.26 -18.09)"/>
</svg>